<mxfile host="app.diagrams.net" modified="2023-04-26T08:58:47.456Z" agent="Mozilla/5.0 (Windows NT 10.0; Win64; x64) AppleWebKit/537.36 (KHTML, like Gecko) Chrome/105.0.0.0 Safari/537.36" etag="NncIsOEDEufBK3h_4Scg" version="21.2.2" type="github">
  <diagram name="Page-1" id="2ca16b54-16f6-2749-3443-fa8db7711227">
    <mxGraphModel dx="1434" dy="764" grid="0" gridSize="10" guides="1" tooltips="1" connect="1" arrows="1" fold="1" page="0" pageScale="1" pageWidth="1100" pageHeight="850" background="none" math="0" shadow="0">
      <root>
        <mxCell id="0" />
        <mxCell id="1" parent="0" />
        <mxCell id="bgwNf0LU1zgc09vJRJOy-1" value="基座mall-admin" style="rounded=0;whiteSpace=wrap;html=1;shadow=0;glass=0;" vertex="1" parent="1">
          <mxGeometry x="557.5" y="456" width="129" height="36" as="geometry" />
        </mxCell>
        <mxCell id="bgwNf0LU1zgc09vJRJOy-15" value="" style="edgeStyle=none;rounded=0;orthogonalLoop=1;jettySize=auto;html=1;fontFamily=Helvetica;fontSize=12;fontColor=default;" edge="1" parent="1" source="bgwNf0LU1zgc09vJRJOy-4" target="bgwNf0LU1zgc09vJRJOy-1">
          <mxGeometry relative="1" as="geometry">
            <Array as="points">
              <mxPoint x="622" y="374" />
            </Array>
          </mxGeometry>
        </mxCell>
        <mxCell id="bgwNf0LU1zgc09vJRJOy-18" style="edgeStyle=none;rounded=0;orthogonalLoop=1;jettySize=auto;html=1;entryX=0.5;entryY=0;entryDx=0;entryDy=0;fontFamily=Helvetica;fontSize=12;fontColor=default;" edge="1" parent="1" source="bgwNf0LU1zgc09vJRJOy-4" target="bgwNf0LU1zgc09vJRJOy-16">
          <mxGeometry relative="1" as="geometry" />
        </mxCell>
        <mxCell id="bgwNf0LU1zgc09vJRJOy-29" style="edgeStyle=none;rounded=0;orthogonalLoop=1;jettySize=auto;html=1;entryX=0.5;entryY=0;entryDx=0;entryDy=0;fontFamily=Helvetica;fontSize=12;fontColor=default;" edge="1" parent="1" source="bgwNf0LU1zgc09vJRJOy-4" target="bgwNf0LU1zgc09vJRJOy-17">
          <mxGeometry relative="1" as="geometry" />
        </mxCell>
        <mxCell id="bgwNf0LU1zgc09vJRJOy-4" value="heytap-cli" style="rounded=0;whiteSpace=wrap;html=1;" vertex="1" parent="1">
          <mxGeometry x="522" y="290" width="200" height="64" as="geometry" />
        </mxCell>
        <mxCell id="bgwNf0LU1zgc09vJRJOy-21" value="" style="edgeStyle=none;rounded=0;orthogonalLoop=1;jettySize=auto;html=1;fontFamily=Helvetica;fontSize=12;fontColor=default;" edge="1" parent="1" source="bgwNf0LU1zgc09vJRJOy-16" target="bgwNf0LU1zgc09vJRJOy-20">
          <mxGeometry relative="1" as="geometry" />
        </mxCell>
        <mxCell id="bgwNf0LU1zgc09vJRJOy-16" value="子应用mall-goods" style="rounded=0;whiteSpace=wrap;html=1;strokeColor=default;fontFamily=Helvetica;fontSize=12;fontColor=default;fillColor=default;" vertex="1" parent="1">
          <mxGeometry x="264" y="456" width="133" height="36" as="geometry" />
        </mxCell>
        <mxCell id="bgwNf0LU1zgc09vJRJOy-27" value="" style="edgeStyle=none;rounded=0;orthogonalLoop=1;jettySize=auto;html=1;fontFamily=Helvetica;fontSize=12;fontColor=default;" edge="1" parent="1" source="bgwNf0LU1zgc09vJRJOy-17" target="bgwNf0LU1zgc09vJRJOy-26">
          <mxGeometry relative="1" as="geometry" />
        </mxCell>
        <mxCell id="bgwNf0LU1zgc09vJRJOy-17" value="子应用mall-commons" style="rounded=0;whiteSpace=wrap;html=1;strokeColor=default;fontFamily=Helvetica;fontSize=12;fontColor=default;fillColor=default;" vertex="1" parent="1">
          <mxGeometry x="839" y="450" width="146" height="43" as="geometry" />
        </mxCell>
        <mxCell id="bgwNf0LU1zgc09vJRJOy-30" style="edgeStyle=none;rounded=0;orthogonalLoop=1;jettySize=auto;html=1;entryX=0;entryY=0.5;entryDx=0;entryDy=0;fontFamily=Helvetica;fontSize=12;fontColor=default;" edge="1" parent="1" source="bgwNf0LU1zgc09vJRJOy-20" target="bgwNf0LU1zgc09vJRJOy-28">
          <mxGeometry relative="1" as="geometry" />
        </mxCell>
        <mxCell id="bgwNf0LU1zgc09vJRJOy-20" value="通过heytap-cli，暴露子应用mall-goods文件" style="whiteSpace=wrap;html=1;rounded=0;" vertex="1" parent="1">
          <mxGeometry x="162" y="591" width="268.5" height="60" as="geometry" />
        </mxCell>
        <mxCell id="bgwNf0LU1zgc09vJRJOy-31" style="edgeStyle=none;rounded=0;orthogonalLoop=1;jettySize=auto;html=1;fontFamily=Helvetica;fontSize=12;fontColor=default;" edge="1" parent="1" source="bgwNf0LU1zgc09vJRJOy-26" target="bgwNf0LU1zgc09vJRJOy-28">
          <mxGeometry relative="1" as="geometry" />
        </mxCell>
        <mxCell id="bgwNf0LU1zgc09vJRJOy-26" value="&lt;span style=&quot;color: rgb(0, 0, 0); font-family: Helvetica; font-size: 12px; font-style: normal; font-variant-ligatures: normal; font-variant-caps: normal; font-weight: 400; letter-spacing: normal; orphans: 2; text-align: center; text-indent: 0px; text-transform: none; widows: 2; word-spacing: 0px; -webkit-text-stroke-width: 0px; background-color: rgb(255, 255, 255); text-decoration-thickness: initial; text-decoration-style: initial; text-decoration-color: initial; float: none; display: inline !important;&quot;&gt;通过heytap-cli，暴露子应用mall-commons&lt;/span&gt;&lt;span style=&quot;color: rgb(0, 0, 0); font-family: Helvetica; font-size: 12px; font-style: normal; font-variant-ligatures: normal; font-variant-caps: normal; font-weight: 400; letter-spacing: normal; orphans: 2; text-align: center; text-indent: 0px; text-transform: none; widows: 2; word-spacing: 0px; -webkit-text-stroke-width: 0px; background-color: rgb(255, 255, 255); text-decoration-thickness: initial; text-decoration-style: initial; text-decoration-color: initial; float: none; display: inline !important;&quot;&gt;文件&lt;/span&gt;" style="whiteSpace=wrap;html=1;rounded=0;" vertex="1" parent="1">
          <mxGeometry x="862" y="576" width="283" height="60" as="geometry" />
        </mxCell>
        <mxCell id="bgwNf0LU1zgc09vJRJOy-33" style="edgeStyle=none;rounded=0;orthogonalLoop=1;jettySize=auto;html=1;entryX=0.5;entryY=1;entryDx=0;entryDy=0;fontFamily=Helvetica;fontSize=12;fontColor=default;" edge="1" parent="1" source="bgwNf0LU1zgc09vJRJOy-28" target="bgwNf0LU1zgc09vJRJOy-32">
          <mxGeometry relative="1" as="geometry" />
        </mxCell>
        <mxCell id="bgwNf0LU1zgc09vJRJOy-28" value="请求远程文件&lt;br&gt;mall-goods/remoteEntry&lt;br&gt;mall-commons/remoteEntry" style="rounded=0;whiteSpace=wrap;html=1;strokeColor=default;fontFamily=Helvetica;fontSize=12;fontColor=default;fillColor=default;" vertex="1" parent="1">
          <mxGeometry x="550" y="765" width="163" height="60" as="geometry" />
        </mxCell>
        <mxCell id="bgwNf0LU1zgc09vJRJOy-34" value="" style="edgeStyle=none;rounded=0;orthogonalLoop=1;jettySize=auto;html=1;fontFamily=Helvetica;fontSize=12;fontColor=default;" edge="1" parent="1" source="bgwNf0LU1zgc09vJRJOy-32" target="bgwNf0LU1zgc09vJRJOy-1">
          <mxGeometry relative="1" as="geometry" />
        </mxCell>
        <mxCell id="bgwNf0LU1zgc09vJRJOy-32" value="通过菜单权限和子应用组装后，生成路由和显示菜单" style="rounded=0;whiteSpace=wrap;html=1;strokeColor=default;fontFamily=Helvetica;fontSize=12;fontColor=default;fillColor=default;" vertex="1" parent="1">
          <mxGeometry x="569" y="591" width="120" height="60" as="geometry" />
        </mxCell>
      </root>
    </mxGraphModel>
  </diagram>
</mxfile>
